<svg width="800" height="400" viewBox="0 0 800 400" fill="none" xmlns="http://www.w3.org/2000/svg">
<path d="M355.551 118.622C355.551 95.0301 373.061 90.9032 381.816 91.7888L340.207 58.3632C335.886 54.8921 330.509 53 324.967 53H307.225C299.921 53 294 58.9212 294 66.2253V206.413C294 221.021 305.842 232.863 320.451 232.863H329.1C343.708 232.863 355.551 221.021 355.551 206.413V118.622Z" fill="#104477"/>
<path d="M505.604 66.7546C505.604 59.4504 499.683 53.5293 492.379 53.5293H475.522C469.575 53.5293 463.834 55.7072 459.383 59.6511L400.331 111.978C409.038 111.093 426.252 124.252 426.253 147.844V233.393L441.687 220.697L453.808 231.401L465.928 220.697L478.049 231.401L490.17 220.697L505.604 233.393V66.7546Z" fill="url(#paint0_linear_13_97)"/>
<path d="M362.828 94.7055L359.455 98.8661C356.628 102.353 355.086 106.705 355.086 111.193L355.086 140.214L427.047 199.709L427.262 141.403C427.293 133.011 423.491 125.064 416.938 119.821L382.846 92.5473C376.714 87.6422 367.773 88.6061 362.828 94.7055Z" fill="url(#paint1_linear_13_97)"/>
<rect x="440.007" y="164.621" width="52.901" height="5.2901" rx="2.64505" fill="#104477"/>
<rect x="440.007" y="180.491" width="52.901" height="5.2901" rx="2.64505" fill="#104477"/>
<rect x="440.007" y="196.361" width="52.901" height="5.2901" rx="2.64505" fill="#104477"/>
<path d="M191.341 272.766V347H174.45V314.079C174.45 306.87 174.45 297.08 174.665 289.441C173.159 297.08 170.684 306.87 168.532 313.971L159.172 347H141.313L131.738 313.971C129.694 306.87 127.219 297.188 125.821 289.549C126.036 297.188 126.036 306.87 126.036 314.079V347H109.145V272.766H135.611L150.566 330.97L165.52 272.766H191.341ZM262.044 333.767V347H206.96V272.766H260.968V285.891H223.851V303.212H258.494V316.338H223.851V333.767H262.044ZM329.929 328.603C330.897 337.317 332.403 342.697 335.415 347H317.018C315.189 341.836 314.113 337.425 313.468 331.185C312.5 323.116 309.38 318.382 303.785 317.952C301.741 317.844 299.912 317.844 297.868 317.844H291.197V347H274.306V272.766H302.494C306.905 272.766 309.81 272.873 313.683 273.303C324.442 274.594 333.371 279.974 333.371 292.992C333.371 302.459 327.992 308.592 318.632 311.281C326.163 314.079 329.068 319.996 329.929 328.603ZM291.197 305.472H299.912C302.279 305.472 304.108 305.472 305.614 305.364C311.101 304.826 315.727 302.459 315.727 295.681C315.727 288.903 311.746 286.752 306.26 286.106C304.753 285.999 302.924 285.891 300.557 285.891H291.197V305.472ZM378.774 271.259C399.323 271.259 409.974 282.341 411.481 296.972L411.588 298.048H394.697L394.482 296.972C392.761 288.366 387.489 283.739 378.559 283.739C367.801 283.739 360.162 292.884 360.162 309.345C360.162 327.957 368.338 336.026 378.452 336.026C387.166 336.026 392.438 330.754 394.159 321.932L394.374 320.857H411.265L411.158 321.932C409.436 338.716 396.634 348.506 377.806 348.506C357.472 348.506 342.41 334.628 342.41 310.313C342.41 285.353 358.333 271.259 378.774 271.259ZM490.084 272.766V347H473.301V317.199H440.81V347H423.919V272.766H440.81V303.966H473.301V272.766H490.084ZM564.831 285.891H540.086V347H523.303V285.891H498.558V272.766H564.831V285.891ZM608.614 318.382V347H591.83V318.597L565.579 272.766H584.622L600.76 303.75L616.252 272.766H634.757L608.614 318.382ZM697.327 332.799V347H642.243V272.766H659.134V332.799H697.327Z" fill="#104477"/>
<defs>
<linearGradient id="paint0_linear_13_97" x1="452.968" y1="53.5293" x2="452.968" y2="233.393" gradientUnits="userSpaceOnUse">
<stop stop-color="#0568EE"/>
<stop offset="1" stop-color="#E9F4FF"/>
</linearGradient>
<linearGradient id="paint1_linear_13_97" x1="360.391" y1="138.435" x2="415.408" y2="104.578" gradientUnits="userSpaceOnUse">
<stop stop-color="#104477"/>
<stop offset="1" stop-color="#2485F6"/>
</linearGradient>
</defs>
</svg>
