<svg width="20" height="20" viewBox="0 0 20 20" fill="none" xmlns="http://www.w3.org/2000/svg">
<path d="M6.64533 8.15037C6.64533 6.36984 7.96684 6.05837 8.6276 6.12521L5.48729 3.60253C5.16118 3.34055 4.75541 3.19775 4.3371 3.19775H2.99813C2.44688 3.19775 2 3.64463 2 4.19589V14.7761C2 15.8786 2.89376 16.7724 3.99627 16.7724H4.64906C5.75157 16.7724 6.64533 15.8786 6.64533 14.7761V8.15037Z" fill="#104477"/>
<path d="M17.9705 4.23641C17.9705 3.68516 17.5236 3.23828 16.9724 3.23828H15.7002C15.2513 3.23828 14.8181 3.40265 14.4822 3.70031L10.0254 7.64952C10.6825 7.58268 11.9817 8.57588 11.9817 10.3564V16.8129L13.1466 15.8547L14.0614 16.6625L14.9761 15.8547L15.8909 16.6625L16.8057 15.8547L17.9705 16.8129V4.23641Z" fill="url(#paint0_linear_13_246)"/>
<path d="M7.19355 6.34511L6.93896 6.65912C6.72563 6.92225 6.60921 7.2507 6.60921 7.58944L6.60922 9.77969L12.0402 14.2699L12.0565 9.86947C12.0588 9.2361 11.7719 8.6363 11.2773 8.24063L8.70431 6.18223C8.24156 5.81203 7.56676 5.88478 7.19355 6.34511Z" fill="url(#paint1_linear_13_246)"/>
<rect x="13.0195" y="11.6221" width="3.99253" height="0.399253" rx="0.199626" fill="#104477"/>
<rect x="13.0195" y="12.8198" width="3.99253" height="0.399253" rx="0.199626" fill="#104477"/>
<rect x="13.0195" y="14.0176" width="3.99253" height="0.399253" rx="0.199626" fill="#104477"/>
<defs>
<linearGradient id="paint0_linear_13_246" x1="13.998" y1="3.23828" x2="13.998" y2="16.8129" gradientUnits="userSpaceOnUse">
<stop stop-color="#0568EE"/>
<stop offset="1" stop-color="#E9F4FF"/>
</linearGradient>
<linearGradient id="paint1_linear_13_246" x1="7.00963" y1="9.64547" x2="11.1619" y2="7.09024" gradientUnits="userSpaceOnUse">
<stop stop-color="#104477"/>
<stop offset="1" stop-color="#2485F6"/>
</linearGradient>
</defs>
</svg>
